<?xml version="1.0" standalone="no"?>
<!DOCTYPE svg PUBLIC "-//W3C//DTD SVG 20010904//EN"
 "http://www.w3.org/TR/2001/REC-SVG-20010904/DTD/svg10.dtd">
<svg version="1.0" xmlns="http://www.w3.org/2000/svg"
 width="80.000000pt" height="80.000000pt" viewBox="0 0 80.000000 80.000000"
 preserveAspectRatio="xMidYMid meet">
<metadata>
Created by potrace 1.11, written by Peter Selinger 2001-2013
</metadata>
<g transform="translate(0.000000,80.000000) scale(0.100000,-0.100000)"
fill="#000000" stroke="none">
<path d="M0 400 l0 -400 400 0 400 0 0 297 0 297 -27 -26 c-16 -13 -74 -60
-130 -103 l-103 -78 0 -51 c-1 -62 -19 -114 -55 -162 l-28 -36 -60 60 -60 60
-126 -97 c-225 -173 -216 -170 -121 -46 46 61 104 135 127 165 l43 55 -55 55
c-30 31 -55 60 -55 66 0 34 140 91 200 82 29 -4 36 2 122 111 50 64 99 124
110 134 19 16 7 17 -281 17 l-301 0 0 -400z"/>
<path d="M660 754 c27 -25 69 -67 94 -94 l46 -49 0 94 0 95 -95 0 -94 0 49
-46z"/>
</g>
</svg>
